<?xml version="1.0" encoding="utf-8"?>
<!-- Generator: Adobe Illustrator 26.4.1, SVG Export Plug-In . SVG Version: 6.00 Build 0)  -->
<svg version="1.1" id="Layer_1" xmlns="http://www.w3.org/2000/svg" xmlns:xlink="http://www.w3.org/1999/xlink" x="0px" y="0px"
	 viewBox="0 0 612 209" style="enable-background:new 0 0 612 209;" xml:space="preserve">
<style type="text/css">
	.st0{fill:#1B4689;}
</style>
<g>
	<g>
		<path class="st0" d="M244.96,106.39l2.88-19.12c0.77-5.02,1.83-11.42,3.16-18.09h-0.21c-2.6,5.98-5.55,12.38-8.15,17.47
			l-9.7,18.98h-7.87l-1.69-18.78c-0.42-5.09-0.77-11.49-1.05-17.68h-0.14c-1.34,6.12-2.74,13.07-3.94,18.09l-4.71,19.12h-9.28
			l11.88-46.36h13.57l1.48,17.61c0.28,4.33,0.77,9.63,0.84,14.79h0.28c1.83-5.16,4.36-10.59,6.4-14.79l8.79-17.61h13.71l-6.4,46.36
			H244.96z"/>
		<path class="st0" d="M299.11,86.72h-18.39l-2.38,11.21h20.61l-1.76,8.46h-31.65l9.81-46.36h30.58l-1.84,8.46h-19.46l-2.15,9.91
			h18.39L299.11,86.72z"/>
		<path class="st0" d="M315.81,60.03h10.96l-4.4,20.71h0.23c1.54-2,3.16-3.65,4.63-5.3l14.43-15.41h13.89l-21.07,20.02l12.04,26.34
			h-12.04l-8.72-20.15l-5.56,4.68l-3.32,15.48h-10.96L315.81,60.03z"/>
		<path class="st0" d="M396.18,78.6c0,8.46-2.96,16.65-8.25,21.88c-4.33,4.2-10.18,6.67-17.13,6.67c-12.04,0-18.78-8.53-18.78-19.33
			c0-8.39,3.1-16.72,8.53-21.94c4.33-4.13,10.25-6.6,16.92-6.6C389.71,59.27,396.18,67.53,396.18,78.6z M368.32,71.04
			c-3.71,3.65-5.78,10.87-5.78,16.44c0,6.53,2.96,11.42,9.7,11.42c2.89,0,5.64-1.31,7.77-3.37c3.65-3.65,5.64-11.28,5.64-16.65
			c0-5.78-2.06-11.35-9.35-11.35C373.2,67.53,370.45,68.84,368.32,71.04z"/>
		<path class="st0" d="M426.25,60.03h31.09l-1.89,8.46h-19.68l-2.44,10.87h18.5l-1.89,8.39h-18.42l-4.01,18.64h-11.33L426.25,60.03z
			"/>
		<path class="st0" d="M503.64,78.6c0,8.46-2.96,16.65-8.25,21.88c-4.33,4.2-10.18,6.67-17.13,6.67c-12.04,0-18.78-8.53-18.78-19.33
			c0-8.39,3.1-16.72,8.53-21.94c4.33-4.13,10.25-6.6,16.92-6.6C497.18,59.27,503.64,67.53,503.64,78.6z M475.79,71.04
			c-3.71,3.65-5.78,10.87-5.78,16.44c0,6.53,2.96,11.42,9.7,11.42c2.89,0,5.64-1.31,7.77-3.37c3.65-3.65,5.64-11.28,5.64-16.65
			c0-5.78-2.06-11.35-9.35-11.35C480.67,67.53,477.92,68.84,475.79,71.04z"/>
		<path class="st0" d="M553.7,78.6c0,8.46-2.96,16.65-8.25,21.88c-4.33,4.2-10.18,6.67-17.13,6.67c-12.04,0-18.78-8.53-18.78-19.33
			c0-8.39,3.1-16.72,8.53-21.94c4.33-4.13,10.25-6.6,16.92-6.6C547.23,59.27,553.7,67.53,553.7,78.6z M525.84,71.04
			c-3.71,3.65-5.78,10.87-5.78,16.44c0,6.53,2.96,11.42,9.7,11.42c2.89,0,5.64-1.31,7.77-3.37c3.65-3.65,5.64-11.28,5.64-16.65
			c0-5.78-2.06-11.35-9.35-11.35C530.73,67.53,527.97,68.84,525.84,71.04z"/>
		<path class="st0" d="M568.16,60.72c3.92-0.69,8.32-1.03,12.79-1.03c7.22,0,13,1.65,16.92,5.02c3.71,3.09,6.05,7.7,6.12,14.51
			c0,8.94-3.78,16.72-9.56,21.32c-5.36,4.26-12.18,6.12-22.22,6.12c-5.57,0-10.39-0.41-12.66-0.83L568.16,60.72z M570.91,98.41
			c1.17,0.21,2.61,0.28,4.33,0.28c5.36,0,10.11-1.93,13.14-5.43c3.16-3.58,4.81-8.39,4.81-13.96c0-7.29-4.06-11.63-12.24-11.63
			c-1.72,0-3.16,0.07-4.2,0.28L570.91,98.41z"/>
	</g>
	<g>
		<path class="st0" d="M223.02,119.57c-1.91-1.25-4.65-1.61-6.99-1.61c-2.54,0-5.2,0.25-6.88,0.64l-4.88,23.61h5.51l1.8-8.68
			c0.59,0.07,1.37,0.14,2.31,0.14c3.2,0,6.25-0.68,8.4-2.21c2.07-1.47,3.6-3.75,3.6-6.79C225.87,122.36,224.78,120.68,223.02,119.57
			z M214.58,129.54c-0.94,0-1.56-0.07-2.15-0.18l1.49-7.11c0.47-0.11,1.21-0.18,2.27-0.18c2.19,0,4.03,0.75,4.03,3.07
			C220.21,127.54,217.98,129.54,214.58,129.54z"/>
		<path class="st0" d="M246.19,119.36c-1.84-1.04-4.42-1.39-6.92-1.39c-2.62,0-5.28,0.25-7.03,0.64l-4.96,23.61h5.59l1.95-9.5h1.72
			c2.23,0,3.32,0.89,3.56,3.82c0.27,2.97,0.55,5.04,0.78,5.68h5.78c-0.47-1-0.7-4.14-1.02-6.82c-0.27-2.18-0.94-3.79-2.5-4.39v-0.14
			c3.36-1,5.98-3.22,5.98-6.79C249.12,121.82,247.91,120.29,246.19,119.36z M237.99,128.86h-2.34l1.41-6.64
			c0.47-0.11,1.13-0.18,2.19-0.18c2.23,0,4.02,0.86,4.02,2.79C243.26,127.18,241.04,128.86,237.99,128.86z"/>
		<path class="st0" d="M264.53,117.75c-3.42,0-6.46,1.29-8.68,3.43c-2.79,2.72-4.38,7.04-4.38,11.4c0,5.61,3.46,10.04,9.63,10.04
			c3.56,0,6.56-1.29,8.78-3.46c2.72-2.71,4.23-6.96,4.23-11.36C274.13,122.04,270.81,117.75,264.53,117.75z M265.84,136.57
			c-1.09,1.07-2.5,1.75-3.99,1.75c-3.46,0-4.97-2.54-4.97-5.93c0-2.89,1.06-6.64,2.96-8.54c1.09-1.14,2.5-1.82,4.09-1.82
			c3.74,0,4.8,2.89,4.8,5.89C268.73,130.72,267.71,134.68,265.84,136.57z"/>
		<path class="st0" d="M539.56,117.75c-3.42,0-6.46,1.29-8.68,3.43c-2.79,2.72-4.38,7.04-4.38,11.4c0,5.61,3.46,10.04,9.63,10.04
			c3.56,0,6.56-1.29,8.78-3.46c2.72-2.71,4.23-6.96,4.23-11.36C549.15,122.04,545.84,117.75,539.56,117.75z M540.86,136.57
			c-1.09,1.07-2.5,1.75-3.99,1.75c-3.46,0-4.97-2.54-4.97-5.93c0-2.89,1.06-6.64,2.96-8.54c1.09-1.14,2.5-1.82,4.09-1.82
			c3.74,0,4.8,2.89,4.8,5.89C543.75,130.72,542.73,134.68,540.86,136.57z"/>
		<polygon class="st0" points="301.02,142.22 317.16,142.22 318.05,137.82 307.54,137.82 308.75,132 318.13,132 319.03,127.68 
			309.65,127.68 310.75,122.54 320.67,122.54 321.61,118.14 306.02,118.14 		"/>
		<polygon class="st0" points="367.9,142.22 373.52,142.22 378.53,118.14 372.9,118.14 		"/>
		<path class="st0" d="M397.51,126.89c-0.74,3.54-1.09,6.18-1.21,8.64h-0.12c-0.63-2.64-1.33-5.14-2.38-8.22l-3.48-9.18h-6.6
			l-5,24.08h5.24l1.72-8.43c0.78-3.79,1.41-7.21,1.72-9.54l0.12-0.04c0.7,2.96,1.41,5.14,2.58,8.39l3.67,9.61h5.82l4.96-24.08h-5.24
			L397.51,126.89z"/>
		<polygon class="st0" points="445.59,122.53 455.36,122.53 456.3,118.14 440.86,118.14 435.86,142.22 441.49,142.22 443.48,132.54 
			452.63,132.54 453.56,128.18 444.38,128.18 		"/>
		<path class="st0" d="M467.93,118.14l-12.82,24.08h5.98l3.13-6.25h7.58l0.55,6.25h5.9l-3.09-24.08H467.93z M465.86,132.04
			l2.62-5.18c0.7-1.39,1.45-3.25,2.11-4.72h0.08c0.12,1.47,0.27,3.39,0.39,4.72l0.51,5.18H465.86z"/>
		<polygon class="st0" points="506.93,118.14 505.95,122.64 512.9,122.64 508.88,142.22 514.51,142.22 518.53,122.64 525.56,122.64 
			526.5,118.14 		"/>
		<path class="st0" d="M570.39,119.45c-1.84-1.04-4.42-1.39-6.92-1.39c-2.62,0-5.28,0.25-7.03,0.64l-4.96,23.61h5.59l1.95-9.5h1.72
			c2.23,0,3.32,0.89,3.56,3.82c0.27,2.97,0.55,5.04,0.78,5.68h5.78c-0.47-1-0.7-4.14-1.02-6.82c-0.27-2.18-0.94-3.79-2.5-4.39v-0.14
			c3.36-1,5.98-3.22,5.98-6.79C573.32,121.91,572.11,120.38,570.39,119.45z M562.18,128.95h-2.34l1.41-6.64
			c0.47-0.11,1.13-0.18,2.19-0.18c2.23,0,4.02,0.86,4.02,2.79C567.46,127.27,565.23,128.95,562.18,128.95z"/>
		<path class="st0" d="M591.16,118.14l-3.95,6.07c-1.13,1.75-1.91,3.11-2.7,4.39h-0.08c-0.27-1.21-0.55-2.36-1.02-4.36l-1.68-6.11
			h-6.02l5.12,14.25l-2.03,9.82h5.63l2.07-9.93l11.37-14.14H591.16z"/>
		<path class="st0" d="M501.65,119.56c-0.89-0.73-1.93-1.24-3.11-1.53c-0.78-0.19-1.76-0.28-2.91-0.28c-2.9,0-5.4,0.74-7.49,2.22
			c-1.77,1.23-3.28,3.03-4.55,5.4c-0.44,0.75-0.81,1.63-1.11,2.65c-0.11,0.35-0.26,0.93-0.46,1.72c-0.13,0.64-0.24,1.28-0.33,1.9
			c-0.09,0.62-0.13,1.15-0.13,1.59v0.5c0,2.39,0.73,4.31,2.18,5.76c1.45,1.44,3.46,2.17,6.02,2.17h0.33c1.38,0,2.75-0.22,4.1-0.67
			c1.36-0.45,2.51-0.97,3.45-1.57c1.05-0.69,2.01-1.63,2.89-2.82c0.88-1.19,1.44-2.35,1.71-3.48h-4.65
			c-0.52,1.12-0.9,1.84-1.14,2.15c-0.81,1-1.97,1.7-3.5,2.09c-0.44,0.13-0.78,0.2-1.03,0.22c-0.25,0.02-0.61,0.03-1.06,0.03
			c-0.68,0-1.31-0.13-1.9-0.37c-0.59-0.31-1.08-0.72-1.47-1.23c-0.39-0.51-0.69-1.16-0.88-1.95c-0.02-0.17-0.06-0.42-0.12-0.75
			c-0.05-0.33-0.08-0.6-0.08-0.81c0-0.48,0.04-0.97,0.13-1.47c0.09-0.5,0.22-1.09,0.39-1.78c0.46-1.66,1-2.98,1.62-3.96
			c0.62-0.98,1.43-1.8,2.42-2.46c0.99-0.67,2.04-1.04,3.16-1.12h0.59c1.61,0,2.81,0.45,3.6,1.34c0.57,0.64,0.85,1.42,0.85,2.34v0.5
			h4.71c0.02-0.31,0.05-0.6,0.08-0.87c0.03-0.27,0.05-0.52,0.05-0.75c0-0.83-0.15-1.61-0.46-2.34
			C503.15,120.98,502.52,120.2,501.65,119.56z"/>
		<path class="st0" d="M427.22,120.73c-0.83-1-2-1.69-3.5-2.09c-1-0.27-2.24-0.41-3.7-0.41c-0.76,0-1.52,0.06-2.27,0.17
			c-0.75,0.12-1.59,0.33-2.5,0.64c-2.94,1.1-5.33,3.1-7.16,5.99c-1.68,2.64-2.52,5.39-2.52,8.23c0,2.37,0.65,4.35,1.96,5.93
			c0.92,1,1.55,1.61,1.9,1.84c1.11,0.73,2.57,1.09,4.38,1.09h0.65c1.83,0,3.52-0.43,5.07-1.28c0.92-0.5,1.89-1.24,2.91-2.21
			l-0.07,2.87h2.94l2.75-12.35h-9.55l-0.85,3.87h5.43c-0.11,0.48-0.26,0.9-0.46,1.28c-0.33,0.62-0.85,1.26-1.57,1.9
			c-0.72,0.69-1.6,1.23-2.65,1.62c-0.89,0.33-1.78,0.5-2.65,0.5l-0.59-0.06c-1.24-0.13-2.28-0.6-3.11-1.44
			c-0.68-0.69-1.17-1.56-1.47-2.62c-0.04-0.23-0.09-0.48-0.13-0.75c-0.04-0.27-0.07-0.52-0.07-0.75c0-1.6,0.38-3.27,1.15-5.02
			c0.85-1.93,1.95-3.36,3.3-4.27c1.57-0.87,3.08-1.31,4.52-1.31c1.39,0,2.54,0.31,3.43,0.92c0.89,0.61,1.41,1.55,1.54,2.82h4.51
			v-0.94c0-0.56-0.1-1.15-0.29-1.78C428.3,122.28,427.85,121.48,427.22,120.73z"/>
		<path class="st0" d="M342.98,120.68c-0.59-0.96-1.52-1.68-2.78-2.18c-1.26-0.5-2.8-0.75-4.61-0.75c-2.79,0-5.11,0.61-6.97,1.82
			c-1.68,1.09-2.82,2.59-3.43,4.5c-0.13,0.4-0.24,0.8-0.33,1.2c-0.09,0.41-0.13,0.76-0.13,1.05c0,1.02,0.34,1.9,1.01,2.63
			c0.57,0.61,1.36,1.09,2.39,1.44c0.44,0.17,2.09,0.52,4.97,1.06c2.05,0.4,3.32,0.9,3.79,1.5c0.26,0.31,0.39,0.75,0.39,1.31
			c0,0.46-0.13,0.92-0.38,1.38c-0.25,0.46-0.58,0.84-0.98,1.16c-0.4,0.31-0.98,0.57-1.72,0.78c-0.74,0.21-1.5,0.31-2.29,0.31h-0.39
			c-0.79,0-1.52-0.12-2.21-0.37c-0.69-0.25-1.22-0.6-1.59-1.06c-0.44-0.56-0.65-1.12-0.65-1.68l0.13-0.62h-4.78l-0.13,1.12
			c0,0.9,0.19,1.77,0.57,2.62c0.38,0.85,0.91,1.56,1.59,2.12c0.54,0.46,1.25,0.82,2.13,1.09c1.11,0.35,2.24,0.53,3.37,0.53
			c1.48,0,2.88-0.13,4.2-0.37c1.32-0.25,2.54-0.67,3.65-1.25c1.2-0.69,2.24-1.76,3.12-3.23c0.88-1.47,1.32-2.86,1.32-4.2
			c0-0.5-0.06-0.97-0.18-1.4c-0.12-0.44-0.3-0.82-0.54-1.15c-0.52-0.67-1.37-1.21-2.55-1.62c-0.79-0.27-1.66-0.48-2.62-0.62
			c-1-0.19-2.01-0.38-3.01-0.59c-1.59-0.33-2.46-0.61-2.62-0.84c-0.46-0.17-0.76-0.31-0.92-0.44c-0.22-0.19-0.33-0.46-0.33-0.81
			c0.07-0.33,0.13-0.67,0.2-1c0.26-0.83,0.82-1.48,1.67-1.93c0.85-0.46,1.84-0.69,2.98-0.69h0.26c1.35,0,2.41,0.29,3.17,0.87
			c0.68,0.52,1.01,1.18,1.01,2l-0.07,0.69h4.65c0.13-0.31,0.2-0.85,0.2-1.62c0-0.5-0.05-0.99-0.15-1.48
			C343.32,121.46,343.18,121.04,342.98,120.68z"/>
		<path class="st0" d="M365.79,120.68c-0.59-0.96-1.52-1.68-2.78-2.18c-1.26-0.5-2.8-0.75-4.61-0.75c-2.79,0-5.11,0.61-6.97,1.82
			c-1.68,1.09-2.82,2.59-3.43,4.5c-0.13,0.4-0.24,0.8-0.33,1.2c-0.09,0.41-0.13,0.76-0.13,1.05c0,1.02,0.34,1.9,1.01,2.63
			c0.57,0.61,1.36,1.09,2.39,1.44c0.44,0.17,2.09,0.52,4.97,1.06c2.05,0.4,3.32,0.9,3.79,1.5c0.26,0.31,0.39,0.75,0.39,1.31
			c0,0.46-0.13,0.92-0.38,1.38c-0.25,0.46-0.58,0.84-0.98,1.16c-0.4,0.31-0.98,0.57-1.72,0.78c-0.74,0.21-1.5,0.31-2.29,0.31h-0.39
			c-0.79,0-1.52-0.12-2.21-0.37c-0.69-0.25-1.22-0.6-1.59-1.06c-0.44-0.56-0.65-1.12-0.65-1.68l0.13-0.62h-4.78l-0.13,1.12
			c0,0.9,0.19,1.77,0.57,2.62c0.38,0.85,0.91,1.56,1.59,2.12c0.54,0.46,1.25,0.82,2.13,1.09c1.11,0.35,2.24,0.53,3.37,0.53
			c1.48,0,2.88-0.13,4.2-0.37c1.32-0.25,2.54-0.67,3.65-1.25c1.2-0.69,2.24-1.76,3.12-3.23c0.88-1.47,1.32-2.86,1.32-4.2
			c0-0.5-0.06-0.97-0.18-1.4c-0.12-0.44-0.3-0.82-0.54-1.15c-0.52-0.67-1.37-1.21-2.55-1.62c-0.79-0.27-1.66-0.48-2.62-0.62
			c-1-0.19-2.01-0.38-3.01-0.59c-1.59-0.33-2.46-0.61-2.62-0.84c-0.46-0.17-0.76-0.31-0.92-0.44c-0.22-0.19-0.33-0.46-0.33-0.81
			c0.07-0.33,0.13-0.67,0.2-1c0.26-0.83,0.82-1.48,1.67-1.93c0.85-0.46,1.84-0.69,2.98-0.69h0.26c1.35,0,2.41,0.29,3.17,0.87
			c0.68,0.52,1.01,1.18,1.01,2l-0.07,0.69h4.65c0.13-0.31,0.2-0.85,0.2-1.62c0-0.5-0.05-0.99-0.15-1.48
			C366.14,121.46,365.99,121.04,365.79,120.68z"/>
		<path class="st0" d="M298.02,119.4c-0.92-0.73-1.98-1.24-3.18-1.53c-0.8-0.19-1.8-0.28-2.98-0.28c-2.97,0-5.52,0.74-7.67,2.22
			c-1.81,1.23-3.36,3.03-4.65,5.4c-0.45,0.75-0.83,1.63-1.14,2.65c-0.11,0.35-0.27,0.93-0.47,1.72c-0.13,0.64-0.25,1.28-0.34,1.9
			c-0.09,0.62-0.13,1.15-0.13,1.59v0.5c0,2.39,0.74,4.31,2.23,5.76c1.49,1.44,3.54,2.17,6.16,2.17h0.34c1.41,0,2.81-0.22,4.2-0.67
			c1.39-0.45,2.56-0.97,3.53-1.57c1.07-0.69,2.06-1.63,2.96-2.82c0.9-1.19,1.48-2.35,1.75-3.48h-4.75
			c-0.54,1.12-0.93,1.84-1.17,2.15c-0.83,1-2.02,1.7-3.58,2.09c-0.45,0.13-0.8,0.2-1.05,0.22c-0.26,0.02-0.62,0.03-1.09,0.03
			c-0.69,0-1.34-0.13-1.94-0.37c-0.6-0.31-1.1-0.72-1.51-1.23c-0.4-0.51-0.7-1.16-0.9-1.95c-0.02-0.17-0.06-0.42-0.12-0.75
			c-0.06-0.33-0.08-0.6-0.08-0.81c0-0.48,0.04-0.97,0.13-1.47c0.09-0.5,0.22-1.09,0.4-1.78c0.47-1.66,1.02-2.98,1.66-3.96
			c0.64-0.98,1.46-1.8,2.48-2.46c1.02-0.67,2.09-1.04,3.23-1.12h0.6c1.65,0,2.88,0.45,3.68,1.34c0.58,0.64,0.87,1.42,0.87,2.34v0.5
			h4.82c0.02-0.31,0.05-0.6,0.08-0.87c0.03-0.27,0.05-0.52,0.05-0.75c0-0.83-0.16-1.61-0.47-2.34
			C299.56,120.82,298.91,120.04,298.02,119.4z"/>
	</g>
	<path class="st0" d="M180.43,126.6C180.43,126.6,180.43,126.6,180.43,126.6l-40.21,0c0,0,9.38-29.67,10.9-34.7
		c1.52-5.04,3.31-12.56,2.83-14.35c-0.48-1.79-1.02-3.75-1.52-4.42c-0.51-0.69-4.48-4.83-5.73-5.38c-1.24-0.55-4.35-0.97-6.69-0.83
		c-2.35,0.14-5.45-0.25-8.69,1.52c-3.19,1.73-5.31,2.83-6.76,4.28c-1.45,1.45-2.3,2.71-2.46,3.13c-0.16,0.41-0.39,1.66-0.39,1.66
		s-0.55,0.26-1.93,0.3c-1.38,0.05-1.89-0.06-1.89-0.4c0-0.21,0.5-3.11-0.19-4.2c-0.21-0.32-2.96-3.43-3.37-3.76
		c-0.41-0.33-1.96-1.1-3.15-1.45c-1.13-0.33-9.87-0.85-11.61-0.48c-1.75,0.37-4.04,1.34-5.55,2.26c-1.52,0.92-3.37,2.47-4.47,3.58
		c-1.1,1.1-3.36,1.43-3.73,1.06c-0.37-0.37-0.02-2.3,0.21-2.62c0.23-0.32,0.46-1.36,0.33-1.81c-0.13-0.45-0.7-1.06-0.83-1.07
		c-0.13-0.02-0.35-0.01-0.35-0.01H26.98c13.14-27.96,41.58-47.37,74.47-47.37c45.34,0,82.23,36.89,82.23,82.23
		c0,4.76-0.42,9.42-1.21,13.96h10.37c0.69-4.55,1.05-9.21,1.05-13.96c0-51.06-41.39-92.45-92.45-92.45
		c-43.05,0-79.23,29.43-89.51,69.27h10.63h5.67h31.55c0,0,2.67,1.75,2.76,2.21c0.09,0.46-19.87,55.65-19.87,55.65h19.96l17.34-45.6
		c0.76-2,2.35-3.64,4.4-4.25c0.29-0.09,0.56-0.14,0.79-0.14c1.38,0,4.28-0.07,4.97,0.48c0.69,0.55,1.79,1.03,2.48,1.79
		c0.69,0.76,0.9,3.1,0.9,4.76c0,1.66-14,42.96-14,42.96h21.11l13.37-41.19c0.9-2.78,2.5-5.3,4.72-7.2c0.55-0.47,1.06-0.83,1.46-0.96
		c1.59-0.52,3.73-0.45,4.24-0.42s1.65,0.25,2.17,0.62c0.52,0.38,1.63,1.28,1.81,1.69c0.18,0.41,0.75,1.9,0.75,2.93
		c0,1.03,0,1.55-0.21,2.59c-0.21,1.03-0.18,1.81-0.91,3.56c-0.72,1.76-12.86,38.36-12.86,38.36h60.81
		C162.88,166.5,134.4,186,101.45,186c-45.34,0-82.23-36.89-82.23-82.23c0-4.97,0.45-9.83,1.31-14.56H10.15
		C9.4,93.95,9,98.81,9,103.77c0,51.06,41.39,92.45,92.45,92.45c43.17,0,79.41-29.6,89.58-69.62H180.43z"/>
</g>
</svg>
