<?xml version="1.0" encoding="utf-8"?>
<!-- Generator: Adobe Illustrator 26.4.1, SVG Export Plug-In . SVG Version: 6.00 Build 0)  -->
<svg version="1.1" id="Layer_1" xmlns="http://www.w3.org/2000/svg" xmlns:xlink="http://www.w3.org/1999/xlink" x="0px" y="0px"
	 viewBox="0 0 841.89 595.28" style="enable-background:new 0 0 841.89 595.28;" xml:space="preserve">
<style type="text/css">
	.st0{fill:#00428C;}
</style>
<g>
	<g>
		<polygon class="st0" points="425.8,232.03 399.59,285.87 397.23,232.03 369.93,232.03 351.83,318.74 370.58,318.74 381.57,260.96 
			384.07,318.74 402.88,318.74 429.91,261.96 416.42,318.74 435.37,318.74 453.53,232.03 		"/>
		<polygon class="st0" points="520.47,282.09 524.03,264.98 480.77,264.98 484.1,249.14 528.85,249.14 532.41,232.03 467.23,232.03 
			449.13,318.74 517.61,318.74 521.25,301.63 472.66,301.63 477.18,282.09 		"/>
		<polygon class="st0" points="621.88,232.03 594.05,232.03 558.56,264.64 565.36,232.03 544.93,232.03 526.83,318.74 
			547.32,318.74 552.83,292.41 567.17,279.89 587.32,318.74 610.36,318.74 582.17,266.74 		"/>
		<path class="st0" d="M691.57,240.7c-6.64-6.7-15.45-10.1-26.17-10.1c-7.93,0-15.12,1.64-21.36,4.88
			c-6.23,3.23-11.47,7.69-15.56,13.26c-4.07,5.53-7.14,12.13-9.12,19.62c-1.51,5.58-2.28,10.97-2.28,16.03
			c0,5.51,1.15,11.04,3.43,16.43c2.31,5.49,6.29,10.14,11.8,13.84c5.52,3.69,12.41,5.57,20.48,5.57c9.23,0,17.62-2.32,24.95-6.91
			c7.32-4.58,13.19-11.2,17.44-19.67c4.23-8.43,6.38-17.28,6.38-26.3C701.57,256.37,698.21,247.4,691.57,240.7z M667.13,298.42
			c-3.98,2.85-8.17,4.29-12.45,4.29c-5.28,0-9.41-1.73-12.62-5.29c-3.26-3.61-4.84-7.98-4.84-13.37c0-8.99,2.57-17.36,7.63-24.89
			c5-7.43,11.27-11.05,19.18-11.05c5.07,0,9.11,1.67,12.36,5.12c3.23,3.42,4.87,8.27,4.87,14.39c0,5.64-1.36,11.53-4.05,17.51
			C674.55,291.07,671.16,295.54,667.13,298.42z"/>
	</g>
	<g>
		<path class="st0" d="M354.01,365.49l6.79-25.23h-12.05l0.88-3.24h28.92l-0.88,3.24h-11.95l-6.79,25.23H354.01z"/>
		<path class="st0" d="M393.56,365.49l7.69-28.47h15.41c3.04,0,5.35,0.2,6.92,0.59c1.57,0.39,2.8,1.14,3.7,2.22
			c0.89,1.09,1.34,2.46,1.34,4.12c0,2.32-0.98,4.24-2.93,5.77c-1.95,1.53-5.11,2.52-9.47,2.97c1.34,0.76,2.35,1.52,3.03,2.25
			c1.54,1.67,2.77,3.4,3.71,5.18l2.8,5.36h-5.49l-2.63-5.3c-0.95-1.92-2.04-3.57-3.26-4.97c-0.84-0.97-1.69-1.61-2.56-1.91
			c-0.87-0.3-2.28-0.46-4.23-0.46h-5.71l-3.41,12.64H393.56z M402.7,349.76h6.79c3.14,0,5.19-0.03,6.14-0.1
			c1.85-0.14,3.37-0.47,4.56-0.97c1.19-0.51,2.1-1.18,2.76-2.04c0.65-0.85,0.98-1.77,0.98-2.76c0-0.83-0.24-1.55-0.73-2.17
			c-0.49-0.61-1.12-1.03-1.9-1.25c-0.79-0.22-2.12-0.33-4.01-0.33h-11.98L402.7,349.76z"/>
		<path class="st0" d="M444.64,365.49l20.82-28.47h5.79l6.06,28.47h-4.76l-1.78-8.2h-14.86l-5.89,8.2H444.64z M458.01,354.36h12.15
			l-1.43-7.15c-0.55-2.83-0.89-5.2-1.03-7.09c-0.84,1.63-2.05,3.57-3.66,5.81L458.01,354.36z"/>
		<path class="st0" d="M499.62,365.49l7.67-28.47h11.07c2.66,0,4.69,0.15,6.09,0.45c2,0.4,3.72,1.12,5.14,2.15
			c1.42,1.03,2.49,2.31,3.21,3.85c0.72,1.54,1.08,3.27,1.08,5.19c0,2.29-0.45,4.38-1.34,6.26c-0.9,1.88-2.06,3.54-3.51,4.97
			c-1.45,1.43-2.95,2.55-4.53,3.36c-1.58,0.81-3.45,1.41-5.6,1.8c-1.64,0.3-3.65,0.45-6.04,0.45H499.62z M505.41,362.27h5.81
			c2.62,0,4.95-0.19,6.99-0.56c1.27-0.23,2.36-0.58,3.26-1.03c1.19-0.58,2.26-1.35,3.23-2.31c1.27-1.27,2.28-2.72,3.05-4.34
			c0.76-1.63,1.14-3.47,1.14-5.55c0-2.3-0.52-4.07-1.55-5.31s-2.35-2.06-3.96-2.46c-1.19-0.3-3.03-0.45-5.54-0.45h-6.49
			L505.41,362.27z"/>
		<path class="st0" d="M554.78,365.49l7.69-28.47h4.89l-7.67,28.47H554.78z"/>
		<path class="st0" d="M586.06,365.49l7.69-28.47h4.76l6.19,10.68c1.89,3.26,3.38,6.01,4.49,8.23c0.63,1.3,1.37,3.04,2.2,5.24
			c0.45-2.4,1.02-4.87,1.7-7.42l4.51-16.74h4.79l-7.67,28.47h-4.86l-9.12-16.45c-1.62-2.9-2.88-5.46-3.78-7.67
			c-0.25,1.85-0.74,4.12-1.45,6.82l-4.66,17.3H586.06z"/>
		<path class="st0" d="M659.08,354.27l0.88-3.22h16.09l-3.13,11.59c-2.02,0.98-4.33,1.79-6.92,2.41c-2.59,0.62-5.14,0.93-7.64,0.93
			c-5.35,0-9.34-1.25-11.98-3.75c-2.22-2.11-3.33-4.82-3.33-8.14c0-3.42,0.97-6.53,2.92-9.33c1.95-2.8,4.4-4.88,7.37-6.22
			c2.96-1.34,6.26-2.01,9.89-2.01c2.6,0,4.95,0.37,7.02,1.1c2.07,0.73,3.66,1.71,4.76,2.93s1.9,2.82,2.38,4.79l-4.81,0.41
			c-0.52-1.95-1.59-3.45-3.22-4.5c-1.63-1.04-3.72-1.56-6.28-1.56c-2.66,0-5.14,0.56-7.44,1.68c-2.3,1.12-4.15,2.81-5.52,5.07
			c-1.38,2.26-2.07,4.83-2.07,7.7c0,2.86,0.91,5.02,2.73,6.49c1.82,1.46,4.33,2.19,7.54,2.19c3.19,0,6.62-0.82,10.3-2.45l1.65-6.12
			H659.08z"/>
	</g>
	<g>
		<g>
			<path class="st0" d="M235.55,392.87c-52.51,0-95.23-42.72-95.23-95.23s42.72-95.23,95.23-95.23s95.23,42.72,95.23,95.23
				S288.05,392.87,235.55,392.87z M235.55,214.82c-45.66,0-82.81,37.15-82.81,82.81s37.15,82.81,82.81,82.81
				c45.66,0,82.81-37.15,82.81-82.81S281.21,214.82,235.55,214.82z"/>
		</g>
		<g>
			<g>
				<path class="st0" d="M213.23,254.17H200.4c-4.65,0-8.83,2.94-10.4,7.32l-25.35,70.68h18.97c3.83,0,7.27-2.42,8.56-6.02
					l18.94-52.81c1.52-4.24,5.41-6.98,9.91-6.98c1.05,0,2.06,0.15,3.02,0.43l-2.4-6.71C220.37,256.55,216.99,254.17,213.23,254.17z"
					/>
			</g>
			<g>
				<path class="st0" d="M221.03,270.65c-2.13,0-4.79,1.09-5.89,4.14l-6.79,18.94l12.24,34.13l12.68-35.35l-6.35-17.72
					C225.82,271.73,223.16,270.65,221.03,270.65z"/>
			</g>
			<g>
				<path class="st0" d="M272.17,254.17h-12.83c-4.65,0-8.83,2.94-10.4,7.32l-25.36,70.68h18.97c3.82,0,7.26-2.42,8.56-6.02
					l1.46-4.07c0.01-0.03,0.02-0.07,0.03-0.1l10.38-28.92c0.01-0.02,0.01-0.04,0.02-0.06l7.05-19.66c1.29-3.6,4.29-6.15,8.01-6.8
					c1.68-0.3,3.37-0.19,4.93,0.27l-2.41-6.72C279.32,256.55,275.93,254.17,272.17,254.17z"/>
			</g>
			<g>
				<path class="st0" d="M284.74,272.83c-1.4-1.68-3.68-2.48-5.93-2.08c-2.23,0.4-3.95,1.87-4.72,4.03l-6.79,18.94l13.79,38.45
					h25.36l-20.58-57.39C285.6,274.07,285.23,273.43,284.74,272.83z"/>
			</g>
		</g>
	</g>
</g>
</svg>
