<svg width="24" height="24" viewBox="0 0 24 24" fill="none" xmlns="http://www.w3.org/2000/svg">
<path fill-rule="evenodd" clip-rule="evenodd" d="M19.2736 4.69726C18.253 3.6829 16.483 3.79882 15.5733 4.89674L15.5696 4.90122L13.7537 7.06696C13.5217 7.34368 13.1585 7.47381 12.8035 7.4074L5.11056 5.96817C4.7687 5.92457 4.47303 6.02234 4.26987 6.21193C3.88377 6.66433 3.94354 7.21568 4.24971 7.51998C4.29859 7.56855 4.32395 7.59356 4.34536 7.61326C4.35032 7.61783 4.35418 7.62127 4.35706 7.62378C4.36502 7.62713 4.37983 7.63293 4.40403 7.64094C4.46248 7.66031 4.51901 7.68503 4.57291 7.71479L9.47581 10.422C9.73958 10.5676 9.92362 10.8244 9.97676 11.121C10.0299 11.4176 9.9465 11.7223 9.74973 11.9505L4.30206 18.2672L4.29016 18.2808C3.93694 18.6757 3.97126 19.3353 4.34051 19.7023C4.71183 20.0714 5.38439 20.1075 5.7866 19.7537C5.78711 19.7533 5.78761 19.7528 5.78811 19.7524L11.9587 14.2508C11.9678 14.2427 11.977 14.2348 11.9864 14.2271L19.0683 8.3615C19.1379 8.3039 19.2144 8.25642 19.2955 8.21986C20.2421 7.25477 20.2348 5.65253 19.2736 4.69726ZM14.0352 3.61834C15.6683 1.65027 18.7994 1.40617 20.6835 3.27872C22.4388 5.02333 22.4388 7.91583 20.6835 9.66043C20.6812 9.66275 20.6785 9.66542 20.6755 9.66841C20.637 9.70689 20.5453 9.79854 20.44 9.877C20.3922 9.91265 20.3106 9.96989 20.2 10.0211L13.2761 15.7557L7.11568 21.2482L7.11229 21.2512C5.88002 22.3399 4.01156 22.1952 2.93064 21.1208C1.84934 20.0462 1.7005 18.1844 2.7928 16.9549L7.43054 11.5773L3.67884 9.50574C3.51129 9.44356 3.35555 9.3664 3.20424 9.25898C3.05518 9.15316 2.93372 9.03208 2.85569 8.9543C2.85019 8.94882 2.8449 8.94355 2.83984 8.93852C1.69856 7.80421 1.75506 6.02313 2.7994 4.85543C2.81246 4.84082 2.82594 4.8266 2.83984 4.81279C3.54069 4.11623 4.50065 3.86138 5.41045 3.99056C5.42494 3.99261 5.43938 3.99499 5.45377 3.99768L12.5967 5.33401L14.0352 3.61834Z" fill="black"/>
<path fill-rule="evenodd" clip-rule="evenodd" d="M17.3445 10.1221C17.8848 10.0075 18.4157 10.3525 18.5303 10.8928L20.1528 18.5414C20.1562 18.5575 20.1592 18.5737 20.1619 18.59C20.3155 19.5441 20.0028 20.5207 19.2298 21.2066C17.7415 22.5273 15.415 22.1263 14.384 20.558L12.9643 18.3984C12.6609 17.9369 12.7891 17.3169 13.2506 17.0135C13.7121 16.7101 14.3321 16.8383 14.6355 17.2998L16.0552 19.4594C16.444 20.0507 17.3626 20.1896 17.9024 19.7106C18.1381 19.5015 18.2323 19.2261 18.1904 18.9282L16.5738 11.3078C16.4592 10.7676 16.8043 10.2367 17.3445 10.1221Z" fill="black"/>
</svg>
