<svg width="24" height="24" viewBox="0 0 24 24" fill="none" xmlns="http://www.w3.org/2000/svg">
<path d="M12 2C6.5 2 2 6.5 2 12C2 17.5 6.5 22 12 22C17.5 22 22 17.5 22 12C22 6.5 17.5 2 12 2ZM12 20C7.6 20 4 16.4 4 12C4 7.6 7.6 4 12 4C16.4 4 20 7.6 20 12C20 16.4 16.4 20 12 20Z" fill="black"/>
<path d="M13.3 10.9998H10.7C10.2 10.9998 9.80005 10.5998 9.80005 10.0998C9.80005 9.5998 10.2 9.1998 10.7 9.1998H14.4C15 9.1998 15.4 8.7998 15.4 8.1998C15.4 7.5998 15 7.1998 14.4 7.1998H13V6.2998C13 5.6998 12.6 5.2998 12 5.2998C11.4 5.2998 11 5.6998 11 6.2998V7.1998H10.7C9.10005 7.1998 7.80005 8.4998 7.80005 10.0998C7.80005 11.6998 9.10005 12.9998 10.7 12.9998H13.2C13.7 12.9998 14.1 13.3998 14.1 13.8998C14.1 14.3998 13.7 14.7998 13.2 14.7998H9.50005C8.90005 14.7998 8.50005 15.1998 8.50005 15.7998C8.50005 16.3998 8.90005 16.7998 9.50005 16.7998H11V17.6998C11 18.2998 11.4 18.6998 12 18.6998C12.6 18.6998 13 18.2998 13 17.6998V16.7998H13.3C14.9 16.7998 16.2 15.4998 16.2 13.8998C16.2 12.2998 14.9 10.9998 13.3 10.9998Z" fill="black"/>
</svg>
