<svg width="24" height="24" viewBox="0 0 24 24" fill="none" xmlns="http://www.w3.org/2000/svg">
<path d="M12.4 9.9C16.5 9.9 19.8 7.9 19.8 5.4C19.8 2.9 16.5 1 12.4 1C8.2 1 5 3 5 5.5C5 8 8.2 9.9 12.4 9.9ZM12.4 3C15.5 3 17.8 4.3 17.8 5.5C17.8 6.7 15.5 8 12.4 8C9.3 7.9 7 6.6 7 5.5C7 4.4 9.3 3 12.4 3Z" fill="black"/>
<path d="M18.9 9.70011C18.4 9.40011 17.8 9.60011 17.5 10.0001C17 11.0001 15 11.9001 12.4 11.9001C9.70005 11.9001 7.80005 11.0001 7.20005 10.0001C6.90005 9.60011 6.30005 9.40011 5.80005 9.70011C5.30005 10.0001 5.20005 10.6001 5.50005 11.1001C6.60005 12.8001 9.30005 13.9001 12.4 13.9001C15.5 13.9001 18.2 12.8001 19.3 11.1001C19.5 10.6001 19.4 10.0001 18.9 9.70011Z" fill="black"/>
<path d="M18.9 14.2C18.4 13.9 17.8 14.1 17.5 14.5C16.9 15.4 15 16.4 12.3 16.4C9.69995 16.4 7.69995 15.5 7.09995 14.5C6.79995 14 6.19995 13.9 5.69995 14.2C5.19995 14.5 5.09995 15.1 5.39995 15.6C6.49995 17.3 9.19995 18.4 12.3 18.4C15.4 18.4 18.1 17.3 19.2 15.6C19.5 15.1 19.4 14.5 18.9 14.2Z" fill="black"/>
<path d="M18.9 18.8001C18.4 18.5001 17.8 18.7001 17.5 19.1001C17 20.1001 15 21.0001 12.4 21.0001C9.80005 21.0001 7.80005 20.1001 7.20005 19.1001C6.90005 18.6001 6.30005 18.5001 5.80005 18.8001C5.30005 19.1001 5.20005 19.7001 5.50005 20.2001C6.50005 21.9001 9.20005 23.0001 12.4 23.0001C15.5 23.0001 18.2 21.9001 19.3 20.2001C19.5 19.7001 19.4 19.1001 18.9 18.8001Z" fill="black"/>
</svg>
