<svg width="24" height="24" viewBox="0 0 24 24" fill="none" xmlns="http://www.w3.org/2000/svg">
<path fill-rule="evenodd" clip-rule="evenodd" d="M4.51875 4C4.25584 4 4 4.17639 4 4.61265V10.0198C4 10.6946 4.26819 11.3912 4.84594 11.9686L12.5138 19.6315C13.1027 20.1462 13.9079 20.0923 14.3482 19.6524L19.643 14.3609C20.1523 13.779 20.0962 13.0056 19.607 12.5656C19.594 12.5539 19.5813 12.5419 19.5689 12.5295L11.8802 4.84567C11.8645 4.82998 11.8493 4.81378 11.8347 4.79708C11.3859 4.28446 10.7267 4 9.92929 4H4.51875ZM2 4.61265C2 3.15168 3.07307 2 4.51875 2H9.92929C11.2087 2 12.4374 2.46606 13.316 3.453L20.9656 11.0978C22.3483 12.3626 22.2906 14.4099 21.1138 15.7166C21.102 15.7297 21.09 15.7424 21.0776 15.7548L15.7619 21.067C14.4979 22.3302 12.4671 22.2797 11.159 21.1032C11.146 21.0915 11.1332 21.0794 11.1208 21.067L3.43218 13.3832C2.49119 12.4428 2 11.2421 2 10.0198V4.61265Z" fill="black"/>
<path d="M8.90918 8.94338C9.46629 8.38626 9.46629 7.483 8.90918 6.92588C8.35206 6.36877 7.4488 6.36877 6.89168 6.92588C6.33457 7.483 6.33457 8.38626 6.89168 8.94338C7.4488 9.50049 8.35206 9.5005 8.90918 8.94338Z" fill="black"/>
</svg>
