<svg width="24" height="24" viewBox="0 0 24 24" fill="none" xmlns="http://www.w3.org/2000/svg">
<path d="M12 2C11.4 2 11 2.4 11 3V5.5C11 6.1 11.4 6.5 12 6.5C12.6 6.5 13 6.1 13 5.5V3C13 2.4 12.6 2 12 2Z" fill="black"/>
<path d="M6.7001 8.1001C6.9001 8.3001 7.2001 8.4001 7.4001 8.4001C7.6001 8.4001 7.9001 8.3001 8.1001 8.1001C8.5001 7.7001 8.5001 7.1001 8.1001 6.7001L6.3001 4.9001C5.9001 4.5001 5.3001 4.5001 4.9001 4.9001C4.5001 5.3001 4.5001 5.9001 4.9001 6.3001L6.7001 8.1001Z" fill="black"/>
<path d="M6.5 12C6.5 11.4 6.1 11 5.5 11H3C2.4 11 2 11.4 2 12C2 12.6 2.4 13 3 13H5.5C6 13 6.5 12.6 6.5 12Z" fill="black"/>
<path d="M6.69995 15.9001L4.99995 17.6001C4.59995 18.0001 4.59995 18.6001 4.99995 19.0001C5.19995 19.2001 5.49995 19.3001 5.69995 19.3001C5.89995 19.3001 6.19995 19.2001 6.39995 19.0001L8.09995 17.3001C8.49995 16.9001 8.49995 16.3001 8.09995 15.9001C7.69995 15.5001 7.09995 15.5001 6.69995 15.9001Z" fill="black"/>
<path d="M12 17.5C11.4 17.5 11 17.9 11 18.5V21C11 21.6 11.4 22 12 22C12.6 22 13 21.6 13 21V18.5C13 18 12.6 17.5 12 17.5Z" fill="black"/>
<path d="M17.3001 15.9001C16.9001 15.5001 16.3001 15.5001 15.9001 15.9001C15.5001 16.3001 15.5001 16.9001 15.9001 17.3001L17.6001 19.0001C17.8001 19.2001 18.1001 19.3001 18.3001 19.3001C18.5001 19.3001 18.8001 19.2001 19.0001 19.0001C19.4001 18.6001 19.4001 18.0001 19.0001 17.6001L17.3001 15.9001Z" fill="black"/>
<path d="M21 11H18.5C17.9 11 17.5 11.4 17.5 12C17.5 12.6 17.9 13 18.5 13H21C21.6 13 22 12.6 22 12C22 11.4 21.6 11 21 11Z" fill="black"/>
<path d="M16.6001 8.4002C16.9001 8.4002 17.1001 8.3002 17.3001 8.1002L19.0001 6.4002C19.4001 6.0002 19.4001 5.4002 19.0001 5.0002C18.6001 4.6002 18.0001 4.6002 17.6001 5.0002L15.9001 6.7002C15.5001 7.1002 15.5001 7.7002 15.9001 8.1002C16.1001 8.3002 16.4001 8.4002 16.6001 8.4002Z" fill="black"/>
</svg>
