<svg width="24" height="24" viewBox="0 0 24 24" fill="none" xmlns="http://www.w3.org/2000/svg">
<path fill-rule="evenodd" clip-rule="evenodd" d="M11.0595 1.03372C16.3938 0.588837 20.8874 4.60236 20.9998 9.77731L21 9.79903C21 11.6079 20.4334 13.2985 19.4291 14.7503L19.4191 14.7645L14.3435 21.8361C14.3334 21.8501 14.323 21.8639 14.3122 21.8774C13.1455 23.3369 10.851 23.4267 9.72991 21.8317L4.65261 14.7578C3.32911 12.8814 2.63363 10.5124 3.19606 8.00522C3.88957 4.24587 7.16746 1.47839 11.0289 1.03673C11.0391 1.03557 11.0493 1.03456 11.0595 1.03372ZM11.241 3.02554C8.15033 3.3853 5.66838 5.58548 5.15992 8.38419C5.15733 8.39848 5.15442 8.41272 5.1512 8.42689C4.72744 10.2929 5.22497 12.0977 6.28467 13.6017L11.3649 20.6798C11.6357 21.0668 12.3109 21.1575 12.7361 20.6456L17.7891 13.6056C18.5711 12.4725 18.9978 11.1813 19 9.80988C18.9075 5.83162 15.45 2.68282 11.241 3.02554Z" fill="black"/>
<path fill-rule="evenodd" clip-rule="evenodd" d="M12.0001 7.8999C10.9508 7.8999 10.1001 8.75056 10.1001 9.7999C10.1001 10.8492 10.9508 11.6999 12.0001 11.6999C13.0494 11.6999 13.9001 10.8492 13.9001 9.7999C13.9001 8.75056 13.0494 7.8999 12.0001 7.8999ZM8.1001 9.7999C8.1001 7.64599 9.84619 5.8999 12.0001 5.8999C14.154 5.8999 15.9001 7.64599 15.9001 9.7999C15.9001 11.9538 14.154 13.6999 12.0001 13.6999C9.84619 13.6999 8.1001 11.9538 8.1001 9.7999Z" fill="black"/>
<path fill-rule="evenodd" clip-rule="evenodd" d="M12.0001 7.8999C10.9508 7.8999 10.1001 8.75056 10.1001 9.7999C10.1001 10.8492 10.9508 11.6999 12.0001 11.6999C13.0494 11.6999 13.9001 10.8492 13.9001 9.7999C13.9001 8.75056 13.0494 7.8999 12.0001 7.8999ZM8.1001 9.7999C8.1001 7.64599 9.84619 5.8999 12.0001 5.8999C14.154 5.8999 15.9001 7.64599 15.9001 9.7999C15.9001 11.9538 14.154 13.6999 12.0001 13.6999C9.84619 13.6999 8.1001 11.9538 8.1001 9.7999Z" fill="black"/>
<path fill-rule="evenodd" clip-rule="evenodd" d="M12.0001 7.8999C10.9508 7.8999 10.1001 8.75056 10.1001 9.7999C10.1001 10.8492 10.9508 11.6999 12.0001 11.6999C13.0494 11.6999 13.9001 10.8492 13.9001 9.7999C13.9001 8.75056 13.0494 7.8999 12.0001 7.8999ZM8.1001 9.7999C8.1001 7.64599 9.84619 5.8999 12.0001 5.8999C14.154 5.8999 15.9001 7.64599 15.9001 9.7999C15.9001 11.9538 14.154 13.6999 12.0001 13.6999C9.84619 13.6999 8.1001 11.9538 8.1001 9.7999Z" fill="black"/>
</svg>
