<svg width="24" height="24" viewBox="0 0 24 24" fill="none" xmlns="http://www.w3.org/2000/svg">
<path fill-rule="evenodd" clip-rule="evenodd" d="M6.3 4C5.05228 4 4 5.05228 4 6.3V11.8H6.3C7.56371 11.8 8.6902 12.4961 9.26566 13.4994C9.80909 14.4286 10.7991 15.1 12 15.1C13.1922 15.1 14.1765 14.4383 14.7224 13.5196C15.3302 12.3375 16.5128 11.8 17.7 11.8L21 11.8C21.5523 11.8 22 12.2477 22 12.8V17.7C22 20.0523 20.0523 22 17.7 22H6.3C3.94772 22 2 20.0523 2 17.7V6.3C2 3.94772 3.94772 2 6.3 2H17.8C20.072 2 22 3.96767 22 6.3V9.6C22 10.1523 21.5523 10.6 21 10.6C20.4477 10.6 20 10.1523 20 9.6V6.3C20 5.03233 18.928 4 17.8 4H6.3ZM4 13.8V17.7C4 18.9477 5.05228 20 6.3 20H17.7C18.9477 20 20 18.9477 20 17.7V13.8L17.7 13.8C17.0983 13.8 16.6918 14.0525 16.4944 14.4472C16.4848 14.4664 16.4746 14.4853 16.4638 14.5039C15.6068 15.973 13.9977 17.1 12 17.1C10.0023 17.1 8.3932 15.973 7.53622 14.5039L7.53172 14.4962C7.30639 14.1018 6.8344 13.8 6.3 13.8H4Z" fill="black"/>
</svg>
