<svg width="24" height="24" viewBox="0 0 24 24" fill="none" xmlns="http://www.w3.org/2000/svg">
<path d="M16.4 20.1001H3.6C2.2 20.1001 1 18.9001 1 17.5001V10.2001C1 8.8001 2.2 7.6001 3.6 7.6001H16.4C17.8 7.6001 19 8.8001 19 10.2001V17.5001C19 18.9001 17.8 20.1001 16.4 20.1001ZM3.6 9.6001C3.3 9.6001 3 9.9001 3 10.2001V17.5001C3 17.8001 3.3 18.1001 3.6 18.1001H16.4C16.7 18.1001 17 17.8001 17 17.5001V10.2001C17 9.9001 16.7 9.6001 16.4 9.6001H3.6Z" fill="black"/>
<path d="M22.0001 16.1C21.4001 16.1 21.0001 15.7 21.0001 15.1V6.7C21.0001 6.3 20.8001 6 20.5001 6H5.1001C4.5001 6 4.1001 5.6 4.1001 5C4.1001 4.4 4.5001 4 5.1001 4H20.5001C21.9001 4 23.0001 5.2 23.0001 6.7V15.1C23.0001 15.6 22.6001 16.1 22.0001 16.1Z" fill="black"/>
<path d="M10 17.0001C8.20005 17.0001 6.80005 15.6001 6.80005 13.8001C6.80005 12.0001 8.20005 10.6001 10 10.6001C11.8 10.6001 13.2 12.0001 13.2 13.8001C13.2 15.6001 11.8 17.0001 10 17.0001ZM10 12.7001C9.30005 12.7001 8.80005 13.2001 8.80005 13.9001C8.80005 14.6001 9.30005 15.0001 10 15.0001C10.7 15.0001 11.2 14.5001 11.2 13.8001C11.2 13.1001 10.7 12.7001 10 12.7001Z" fill="black"/>
<path d="M4.89995 14.5001C5.28655 14.5001 5.59995 14.1867 5.59995 13.8001C5.59995 13.4135 5.28655 13.1001 4.89995 13.1001C4.51335 13.1001 4.19995 13.4135 4.19995 13.8001C4.19995 14.1867 4.51335 14.5001 4.89995 14.5001Z" fill="black"/>
<path d="M15.0999 14.5001C15.4865 14.5001 15.7999 14.1867 15.7999 13.8001C15.7999 13.4135 15.4865 13.1001 15.0999 13.1001C14.7133 13.1001 14.3999 13.4135 14.3999 13.8001C14.3999 14.1867 14.7133 14.5001 15.0999 14.5001Z" fill="black"/>
</svg>
