<svg width="24" height="24" viewBox="0 0 24 24" fill="none" xmlns="http://www.w3.org/2000/svg">
<path d="M1.9654 23C1.66365 23 1.46249 22.9005 1.26132 22.7014C0.959574 22.4027 0.959574 22.1041 1.06016 21.7059L2.56889 16.7285C2.77006 15.9321 3.27297 15.0362 3.97705 14.4389L16.1475 2.19457C16.9522 1.39819 17.958 1 19.0644 1C20.0702 1 21.0761 1.39819 21.8807 2.09502C23.3895 3.58824 23.3895 6.17647 21.7801 7.76923L11.5207 18.0226C11.1184 18.4208 10.5149 18.4208 10.1126 18.0226C9.71024 17.6244 9.71024 17.0271 10.1126 16.629L20.372 6.47511C21.1766 5.67873 21.2772 4.28507 20.4726 3.48869C20.0702 3.0905 19.5673 2.8914 19.0644 2.8914C18.4609 2.8914 17.958 3.0905 17.4551 3.58824L5.48578 15.5339L9.00617 19.0181C9.20733 19.2172 9.30791 19.5158 9.30791 19.8145C9.30791 20.1131 9.10675 20.4118 8.90558 20.5113L8.70442 20.6109C8.20151 20.9095 7.6986 21.2081 7.0951 21.4072L2.16656 22.9005C2.06598 23 2.06598 23 1.9654 23ZM4.47996 17.1267C4.47996 17.2262 4.47996 17.2262 4.37938 17.3258L3.37355 20.6109L6.59219 19.6154C6.69277 19.6154 6.69277 19.6154 6.79335 19.5158L4.47996 17.1267Z" fill="black"/>
</svg>
