<svg width="24" height="24" viewBox="0 0 24 24" fill="none" xmlns="http://www.w3.org/2000/svg">
<path d="M23 4.9C23 3.8 22.7 2.8 21.9 2.1C21.2 1.3 20.2 1 19.1 1C18.1 1 17.1 1.5 16.3 2.3L12.6 6L12.1 5.5C11.7 5.1 11.1 5.1 10.7 5.5C10.3 5.9 10.3 6.5 10.7 6.9L15.3 11.5L8 18.8C7.3 19.5 6.4 20.1 5.4 20.5C4.6 20.7 3.8 20.9 3 21C3.1 20.2 3.2 19.4 3.5 18.7C3.9 17.8 4.5 16.9 5.2 16.1L11 10.4C11.4 10 11.4 9.4 11 9C10.6 8.6 10 8.6 9.6 9L3.9 14.7C3 15.6 2.2 16.7 1.7 17.9C1.2 19.1 1 20.4 1 21.6C1 22 1.1 22.3 1.4 22.6C1.7 22.9 2 23 2.4 23C2.5 23 2.5 23 2.6 23C3.8 23 5 22.8 6.2 22.3C7.4 21.8 8.5 21.1 9.4 20.2L16.7 12.9L17.2 13.4C17.4 13.6 17.7 13.7 17.9 13.7C18.1 13.7 18.4 13.6 18.6 13.4C19 13 19 12.4 18.6 12L18.1 11.5L21.8 7.8C22.5 7 23 6 23 4.9ZM20.3 6.3L16.7 10L14 7.3L17.7 3.6C18.1 3.3 18.6 3 19.2 3C19.7 3 20.2 3.2 20.5 3.5C20.8 3.8 21 4.3 21 4.8C21 5.4 20.7 5.9 20.3 6.3Z" fill="black"/>
</svg>
