<svg width="24" height="24" viewBox="0 0 24 24" fill="none" xmlns="http://www.w3.org/2000/svg">
<path d="M18.5 5.2002H5.5C3.5 5.2002 2 6.7002 2 8.7002V15.4002C2 17.3002 3.5 18.9002 5.5 18.9002H6V20.4002C6 21.8002 7.2 23.0002 8.7 23.0002H15.4C16.9 23.0002 18.1 21.8002 18.1 20.3002V18.8002H18.6C20.5 18.8002 22.1 17.2002 22.1 15.3002V8.7002C22 6.7002 20.5 5.2002 18.5 5.2002ZM16 20.3002C16 20.7002 15.7 21.0002 15.3 21.0002H8.7C8.3 21.0002 8 20.7002 8 20.3002V14.6002H16V20.3002ZM20 15.3002C20 16.1002 19.3 16.8002 18.5 16.8002H18V13.6002C18 13.0002 17.6 12.6002 17 12.6002H7C6.4 12.6002 6 13.0002 6 13.6002V16.8002H5.5C4.7 16.8002 4 16.1002 4 15.3002V8.7002C4 7.9002 4.7 7.2002 5.5 7.2002H18.6C19.4 7.2002 20.1 7.9002 20.1 8.7002V15.3002H20Z" fill="black"/>
<path d="M7 4.7C7.6 4.7 8 4.3 8 3.7C8 3.3 8.3 3 8.7 3H15.4C15.7 3 16 3.3 16 3.7C16 4.3 16.4 4.7 17 4.7C17.6 4.7 18 4.3 18 3.7C18 2.2 16.8 1 15.3 1H8.7C7.2 1 6 2.2 6 3.7C6 4.2 6.4 4.7 7 4.7Z" fill="black"/>
<path d="M17.8 10.3002C18.2418 10.3002 18.6 9.94202 18.6 9.5002C18.6 9.05837 18.2418 8.7002 17.8 8.7002C17.3582 8.7002 17 9.05837 17 9.5002C17 9.94202 17.3582 10.3002 17.8 10.3002Z" fill="black"/>
</svg>
