<svg width="24" height="24" viewBox="0 0 24 24" fill="none" xmlns="http://www.w3.org/2000/svg">
<path d="  M 7 0 l 1 0 l 0 1 l -1 0 Z M 8 0 l 1 0 l 0 1 l -1 0 Z M 10 0 l 1 0 l 0 1 l -1 0 Z M 11 0 l 1 0 l 0 1 l -1 0 Z M 13 0 l 1 0 l 0 1 l -1 0 Z M 1 1 l 1 0 l 0 1 l -1 0 Z M 2 1 l 1 0 l 0 1 l -1 0 Z M 3 1 l 1 0 l 0 1 l -1 0 Z M 4 1 l 1 0 l 0 1 l -1 0 Z M 5 1 l 1 0 l 0 1 l -1 0 Z M 7 1 l 1 0 l 0 1 l -1 0 Z M 9 1 l 1 0 l 0 1 l -1 0 Z M 10 1 l 1 0 l 0 1 l -1 0 Z M 12 1 l 1 0 l 0 1 l -1 0 Z M 13 1 l 1 0 l 0 1 l -1 0 Z M 15 1 l 1 0 l 0 1 l -1 0 Z M 16 1 l 1 0 l 0 1 l -1 0 Z M 17 1 l 1 0 l 0 1 l -1 0 Z M 18 1 l 1 0 l 0 1 l -1 0 Z M 19 1 l 1 0 l 0 1 l -1 0 Z M 1 2 l 1 0 l 0 1 l -1 0 Z M 5 2 l 1 0 l 0 1 l -1 0 Z M 7 2 l 1 0 l 0 1 l -1 0 Z M 8 2 l 1 0 l 0 1 l -1 0 Z M 10 2 l 1 0 l 0 1 l -1 0 Z M 11 2 l 1 0 l 0 1 l -1 0 Z M 12 2 l 1 0 l 0 1 l -1 0 Z M 13 2 l 1 0 l 0 1 l -1 0 Z M 15 2 l 1 0 l 0 1 l -1 0 Z M 19 2 l 1 0 l 0 1 l -1 0 Z M 1 3 l 1 0 l 0 1 l -1 0 Z M 5 3 l 1 0 l 0 1 l -1 0 Z M 7 3 l 1 0 l 0 1 l -1 0 Z M 9 3 l 1 0 l 0 1 l -1 0 Z M 10 3 l 1 0 l 0 1 l -1 0 Z M 12 3 l 1 0 l 0 1 l -1 0 Z M 13 3 l 1 0 l 0 1 l -1 0 Z M 15 3 l 1 0 l 0 1 l -1 0 Z M 19 3 l 1 0 l 0 1 l -1 0 Z M 1 4 l 1 0 l 0 1 l -1 0 Z M 5 4 l 1 0 l 0 1 l -1 0 Z M 7 4 l 1 0 l 0 1 l -1 0 Z M 8 4 l 1 0 l 0 1 l -1 0 Z M 9 4 l 1 0 l 0 1 l -1 0 Z M 13 4 l 1 0 l 0 1 l -1 0 Z M 15 4 l 1 0 l 0 1 l -1 0 Z M 19 4 l 1 0 l 0 1 l -1 0 Z M 1 5 l 1 0 l 0 1 l -1 0 Z M 2 5 l 1 0 l 0 1 l -1 0 Z M 3 5 l 1 0 l 0 1 l -1 0 Z M 4 5 l 1 0 l 0 1 l -1 0 Z M 5 5 l 1 0 l 0 1 l -1 0 Z M 7 5 l 1 0 l 0 1 l -1 0 Z M 11 5 l 1 0 l 0 1 l -1 0 Z M 13 5 l 1 0 l 0 1 l -1 0 Z M 15 5 l 1 0 l 0 1 l -1 0 Z M 16 5 l 1 0 l 0 1 l -1 0 Z M 17 5 l 1 0 l 0 1 l -1 0 Z M 18 5 l 1 0 l 0 1 l -1 0 Z M 19 5 l 1 0 l 0 1 l -1 0 Z M 7 6 l 1 0 l 0 1 l -1 0 Z M 9 6 l 1 0 l 0 1 l -1 0 Z M 11 6 l 1 0 l 0 1 l -1 0 Z M 13 6 l 1 0 l 0 1 l -1 0 Z M 0 7 l 1 0 l 0 1 l -1 0 Z M 1 7 l 1 0 l 0 1 l -1 0 Z M 2 7 l 1 0 l 0 1 l -1 0 Z M 3 7 l 1 0 l 0 1 l -1 0 Z M 4 7 l 1 0 l 0 1 l -1 0 Z M 5 7 l 1 0 l 0 1 l -1 0 Z M 6 7 l 1 0 l 0 1 l -1 0 Z M 7 7 l 1 0 l 0 1 l -1 0 Z M 8 7 l 1 0 l 0 1 l -1 0 Z M 9 7 l 1 0 l 0 1 l -1 0 Z M 13 7 l 1 0 l 0 1 l -1 0 Z M 14 7 l 1 0 l 0 1 l -1 0 Z M 15 7 l 1 0 l 0 1 l -1 0 Z M 16 7 l 1 0 l 0 1 l -1 0 Z M 17 7 l 1 0 l 0 1 l -1 0 Z M 18 7 l 1 0 l 0 1 l -1 0 Z M 19 7 l 1 0 l 0 1 l -1 0 Z M 20 7 l 1 0 l 0 1 l -1 0 Z M 5 8 l 1 0 l 0 1 l -1 0 Z M 10 8 l 1 0 l 0 1 l -1 0 Z M 11 8 l 1 0 l 0 1 l -1 0 Z M 14 8 l 1 0 l 0 1 l -1 0 Z M 16 8 l 1 0 l 0 1 l -1 0 Z M 18 8 l 1 0 l 0 1 l -1 0 Z M 20 8 l 1 0 l 0 1 l -1 0 Z M 0 9 l 1 0 l 0 1 l -1 0 Z M 3 9 l 1 0 l 0 1 l -1 0 Z M 4 9 l 1 0 l 0 1 l -1 0 Z M 5 9 l 1 0 l 0 1 l -1 0 Z M 6 9 l 1 0 l 0 1 l -1 0 Z M 9 9 l 1 0 l 0 1 l -1 0 Z M 11 9 l 1 0 l 0 1 l -1 0 Z M 13 9 l 1 0 l 0 1 l -1 0 Z M 14 9 l 1 0 l 0 1 l -1 0 Z M 16 9 l 1 0 l 0 1 l -1 0 Z M 17 9 l 1 0 l 0 1 l -1 0 Z M 19 9 l 1 0 l 0 1 l -1 0 Z M 20 9 l 1 0 l 0 1 l -1 0 Z M 0 10 l 1 0 l 0 1 l -1 0 Z M 1 10 l 1 0 l 0 1 l -1 0 Z M 2 10 l 1 0 l 0 1 l -1 0 Z M 4 10 l 1 0 l 0 1 l -1 0 Z M 5 10 l 1 0 l 0 1 l -1 0 Z M 7 10 l 1 0 l 0 1 l -1 0 Z M 9 10 l 1 0 l 0 1 l -1 0 Z M 12 10 l 1 0 l 0 1 l -1 0 Z M 14 10 l 1 0 l 0 1 l -1 0 Z M 15 10 l 1 0 l 0 1 l -1 0 Z M 1 11 l 1 0 l 0 1 l -1 0 Z M 2 11 l 1 0 l 0 1 l -1 0 Z M 3 11 l 1 0 l 0 1 l -1 0 Z M 5 11 l 1 0 l 0 1 l -1 0 Z M 6 11 l 1 0 l 0 1 l -1 0 Z M 7 11 l 1 0 l 0 1 l -1 0 Z M 8 11 l 1 0 l 0 1 l -1 0 Z M 11 11 l 1 0 l 0 1 l -1 0 Z M 12 11 l 1 0 l 0 1 l -1 0 Z M 13 11 l 1 0 l 0 1 l -1 0 Z M 14 11 l 1 0 l 0 1 l -1 0 Z M 17 11 l 1 0 l 0 1 l -1 0 Z M 19 11 l 1 0 l 0 1 l -1 0 Z M 3 12 l 1 0 l 0 1 l -1 0 Z M 4 12 l 1 0 l 0 1 l -1 0 Z M 9 12 l 1 0 l 0 1 l -1 0 Z M 10 12 l 1 0 l 0 1 l -1 0 Z M 12 12 l 1 0 l 0 1 l -1 0 Z M 14 12 l 1 0 l 0 1 l -1 0 Z M 15 12 l 1 0 l 0 1 l -1 0 Z M 0 13 l 1 0 l 0 1 l -1 0 Z M 1 13 l 1 0 l 0 1 l -1 0 Z M 2 13 l 1 0 l 0 1 l -1 0 Z M 3 13 l 1 0 l 0 1 l -1 0 Z M 4 13 l 1 0 l 0 1 l -1 0 Z M 5 13 l 1 0 l 0 1 l -1 0 Z M 6 13 l 1 0 l 0 1 l -1 0 Z M 7 13 l 1 0 l 0 1 l -1 0 Z M 15 13 l 1 0 l 0 1 l -1 0 Z M 16 13 l 1 0 l 0 1 l -1 0 Z M 18 13 l 1 0 l 0 1 l -1 0 Z M 19 13 l 1 0 l 0 1 l -1 0 Z M 20 13 l 1 0 l 0 1 l -1 0 Z M 7 14 l 1 0 l 0 1 l -1 0 Z M 11 14 l 1 0 l 0 1 l -1 0 Z M 13 14 l 1 0 l 0 1 l -1 0 Z M 16 14 l 1 0 l 0 1 l -1 0 Z M 17 14 l 1 0 l 0 1 l -1 0 Z M 18 14 l 1 0 l 0 1 l -1 0 Z M 19 14 l 1 0 l 0 1 l -1 0 Z M 20 14 l 1 0 l 0 1 l -1 0 Z M 1 15 l 1 0 l 0 1 l -1 0 Z M 2 15 l 1 0 l 0 1 l -1 0 Z M 3 15 l 1 0 l 0 1 l -1 0 Z M 4 15 l 1 0 l 0 1 l -1 0 Z M 5 15 l 1 0 l 0 1 l -1 0 Z M 7 15 l 1 0 l 0 1 l -1 0 Z M 8 15 l 1 0 l 0 1 l -1 0 Z M 15 15 l 1 0 l 0 1 l -1 0 Z M 16 15 l 1 0 l 0 1 l -1 0 Z M 18 15 l 1 0 l 0 1 l -1 0 Z M 19 15 l 1 0 l 0 1 l -1 0 Z M 20 15 l 1 0 l 0 1 l -1 0 Z M 1 16 l 1 0 l 0 1 l -1 0 Z M 5 16 l 1 0 l 0 1 l -1 0 Z M 7 16 l 1 0 l 0 1 l -1 0 Z M 11 16 l 1 0 l 0 1 l -1 0 Z M 13 16 l 1 0 l 0 1 l -1 0 Z M 14 16 l 1 0 l 0 1 l -1 0 Z M 16 16 l 1 0 l 0 1 l -1 0 Z M 17 16 l 1 0 l 0 1 l -1 0 Z M 19 16 l 1 0 l 0 1 l -1 0 Z M 20 16 l 1 0 l 0 1 l -1 0 Z M 1 17 l 1 0 l 0 1 l -1 0 Z M 5 17 l 1 0 l 0 1 l -1 0 Z M 7 17 l 1 0 l 0 1 l -1 0 Z M 10 17 l 1 0 l 0 1 l -1 0 Z M 11 17 l 1 0 l 0 1 l -1 0 Z M 13 17 l 1 0 l 0 1 l -1 0 Z M 14 17 l 1 0 l 0 1 l -1 0 Z M 16 17 l 1 0 l 0 1 l -1 0 Z M 17 17 l 1 0 l 0 1 l -1 0 Z M 19 17 l 1 0 l 0 1 l -1 0 Z M 20 17 l 1 0 l 0 1 l -1 0 Z M 1 18 l 1 0 l 0 1 l -1 0 Z M 5 18 l 1 0 l 0 1 l -1 0 Z M 7 18 l 1 0 l 0 1 l -1 0 Z M 10 18 l 1 0 l 0 1 l -1 0 Z M 12 18 l 1 0 l 0 1 l -1 0 Z M 14 18 l 1 0 l 0 1 l -1 0 Z M 15 18 l 1 0 l 0 1 l -1 0 Z M 19 18 l 1 0 l 0 1 l -1 0 Z M 20 18 l 1 0 l 0 1 l -1 0 Z M 1 19 l 1 0 l 0 1 l -1 0 Z M 2 19 l 1 0 l 0 1 l -1 0 Z M 3 19 l 1 0 l 0 1 l -1 0 Z M 4 19 l 1 0 l 0 1 l -1 0 Z M 5 19 l 1 0 l 0 1 l -1 0 Z M 7 19 l 1 0 l 0 1 l -1 0 Z M 10 19 l 1 0 l 0 1 l -1 0 Z M 11 19 l 1 0 l 0 1 l -1 0 Z M 12 19 l 1 0 l 0 1 l -1 0 Z M 13 19 l 1 0 l 0 1 l -1 0 Z M 14 19 l 1 0 l 0 1 l -1 0 Z M 17 19 l 1 0 l 0 1 l -1 0 Z M 19 19 l 1 0 l 0 1 l -1 0 Z M 20 19 l 1 0 l 0 1 l -1 0 Z M 7 20 l 1 0 l 0 1 l -1 0 Z M 9 20 l 1 0 l 0 1 l -1 0 Z M 12 20 l 1 0 l 0 1 l -1 0 Z M 14 20 l 1 0 l 0 1 l -1 0 Z M 15 20 l 1 0 l 0 1 l -1 0 Z M 20 20 l 1 0 l 0 1 l -1 0 Z"   />
</svg>
